<mxfile host="app.diagrams.net" modified="2023-04-24T10:12:24.032Z" agent="Mozilla/5.0 (Windows NT 10.0; Win64; x64) AppleWebKit/537.36 (KHTML, like Gecko) Chrome/112.0.0.0 Safari/537.36" etag="5ML0PbK9rpRgBrR1uxnj" version="21.2.1" type="github">
  <diagram name="第 1 页" id="OPeyxRAp1N4GRM86Xaxi">
    <mxGraphModel dx="794" dy="1607" grid="1" gridSize="10" guides="1" tooltips="1" connect="1" arrows="1" fold="1" page="1" pageScale="1" pageWidth="827" pageHeight="1169" math="0" shadow="0">
      <root>
        <mxCell id="0" />
        <mxCell id="1" parent="0" />
        <mxCell id="OP0g3b1n2njnNrjM4BgF-3" value="" style="edgeStyle=orthogonalEdgeStyle;rounded=0;orthogonalLoop=1;jettySize=auto;html=1;" edge="1" parent="1" source="OP0g3b1n2njnNrjM4BgF-1" target="OP0g3b1n2njnNrjM4BgF-2">
          <mxGeometry relative="1" as="geometry" />
        </mxCell>
        <mxCell id="OP0g3b1n2njnNrjM4BgF-1" value="输入账户" style="rounded=0;whiteSpace=wrap;html=1;" vertex="1" parent="1">
          <mxGeometry x="340" y="-350" width="120" height="60" as="geometry" />
        </mxCell>
        <mxCell id="OP0g3b1n2njnNrjM4BgF-5" value="" style="edgeStyle=orthogonalEdgeStyle;rounded=0;orthogonalLoop=1;jettySize=auto;html=1;" edge="1" parent="1" source="OP0g3b1n2njnNrjM4BgF-2" target="OP0g3b1n2njnNrjM4BgF-4">
          <mxGeometry relative="1" as="geometry" />
        </mxCell>
        <mxCell id="OP0g3b1n2njnNrjM4BgF-2" value="判断账户钱包地址非空" style="rounded=0;whiteSpace=wrap;html=1;" vertex="1" parent="1">
          <mxGeometry x="340" y="-210" width="120" height="60" as="geometry" />
        </mxCell>
        <mxCell id="OP0g3b1n2njnNrjM4BgF-7" value="" style="edgeStyle=orthogonalEdgeStyle;rounded=0;orthogonalLoop=1;jettySize=auto;html=1;" edge="1" parent="1" source="OP0g3b1n2njnNrjM4BgF-4" target="OP0g3b1n2njnNrjM4BgF-6">
          <mxGeometry relative="1" as="geometry" />
        </mxCell>
        <mxCell id="OP0g3b1n2njnNrjM4BgF-12" value="" style="edgeStyle=orthogonalEdgeStyle;rounded=0;orthogonalLoop=1;jettySize=auto;html=1;" edge="1" parent="1" source="OP0g3b1n2njnNrjM4BgF-4" target="OP0g3b1n2njnNrjM4BgF-11">
          <mxGeometry relative="1" as="geometry" />
        </mxCell>
        <mxCell id="OP0g3b1n2njnNrjM4BgF-4" value="创建或加载出账户信息" style="rounded=0;whiteSpace=wrap;html=1;" vertex="1" parent="1">
          <mxGeometry x="340" y="-70" width="120" height="60" as="geometry" />
        </mxCell>
        <mxCell id="OP0g3b1n2njnNrjM4BgF-10" value="YES" style="edgeStyle=orthogonalEdgeStyle;rounded=0;orthogonalLoop=1;jettySize=auto;html=1;" edge="1" parent="1" source="OP0g3b1n2njnNrjM4BgF-6" target="OP0g3b1n2njnNrjM4BgF-8">
          <mxGeometry relative="1" as="geometry">
            <Array as="points">
              <mxPoint x="660" y="-40" />
              <mxPoint x="660" y="-40" />
            </Array>
          </mxGeometry>
        </mxCell>
        <mxCell id="OP0g3b1n2njnNrjM4BgF-22" value="NO" style="edgeStyle=orthogonalEdgeStyle;rounded=0;orthogonalLoop=1;jettySize=auto;html=1;" edge="1" parent="1" source="OP0g3b1n2njnNrjM4BgF-6">
          <mxGeometry relative="1" as="geometry">
            <mxPoint x="400" y="20" as="targetPoint" />
            <Array as="points">
              <mxPoint x="600" y="30" />
              <mxPoint x="590" y="30" />
            </Array>
          </mxGeometry>
        </mxCell>
        <mxCell id="OP0g3b1n2njnNrjM4BgF-6" value="账户钱包地址是否为空" style="rhombus;whiteSpace=wrap;html=1;rounded=0;" vertex="1" parent="1">
          <mxGeometry x="560" y="-80" width="80" height="80" as="geometry" />
        </mxCell>
        <mxCell id="OP0g3b1n2njnNrjM4BgF-8" value="空则创建新账户，把钱包地址和邀请码写入新账户中" style="rounded=0;whiteSpace=wrap;html=1;" vertex="1" parent="1">
          <mxGeometry x="700" y="-70" width="120" height="60" as="geometry" />
        </mxCell>
        <mxCell id="OP0g3b1n2njnNrjM4BgF-16" value="" style="edgeStyle=orthogonalEdgeStyle;rounded=0;orthogonalLoop=1;jettySize=auto;html=1;" edge="1" parent="1" source="OP0g3b1n2njnNrjM4BgF-11" target="OP0g3b1n2njnNrjM4BgF-15">
          <mxGeometry relative="1" as="geometry">
            <Array as="points">
              <mxPoint x="400" y="100" />
            </Array>
          </mxGeometry>
        </mxCell>
        <mxCell id="OP0g3b1n2njnNrjM4BgF-21" value="" style="edgeStyle=orthogonalEdgeStyle;rounded=0;orthogonalLoop=1;jettySize=auto;html=1;" edge="1" parent="1" source="OP0g3b1n2njnNrjM4BgF-11" target="OP0g3b1n2njnNrjM4BgF-20">
          <mxGeometry relative="1" as="geometry" />
        </mxCell>
        <mxCell id="OP0g3b1n2njnNrjM4BgF-11" value="生成验证对象AuthV0，设置nonce, message, wallet" style="rounded=0;whiteSpace=wrap;html=1;" vertex="1" parent="1">
          <mxGeometry x="340" y="70" width="120" height="60" as="geometry" />
        </mxCell>
        <mxCell id="OP0g3b1n2njnNrjM4BgF-18" value="YES" style="edgeStyle=orthogonalEdgeStyle;rounded=0;orthogonalLoop=1;jettySize=auto;html=1;" edge="1" parent="1" source="OP0g3b1n2njnNrjM4BgF-15" target="OP0g3b1n2njnNrjM4BgF-17">
          <mxGeometry relative="1" as="geometry" />
        </mxCell>
        <mxCell id="OP0g3b1n2njnNrjM4BgF-29" value="NO" style="edgeStyle=orthogonalEdgeStyle;rounded=0;orthogonalLoop=1;jettySize=auto;html=1;" edge="1" parent="1" source="OP0g3b1n2njnNrjM4BgF-15">
          <mxGeometry relative="1" as="geometry">
            <mxPoint x="400" y="160" as="targetPoint" />
            <Array as="points">
              <mxPoint x="590" y="180" />
              <mxPoint x="590" y="180" />
            </Array>
          </mxGeometry>
        </mxCell>
        <mxCell id="OP0g3b1n2njnNrjM4BgF-15" value="验证账户是否存在twitter中" style="rhombus;whiteSpace=wrap;html=1;rounded=0;" vertex="1" parent="1">
          <mxGeometry x="550" y="60" width="80" height="80" as="geometry" />
        </mxCell>
        <mxCell id="OP0g3b1n2njnNrjM4BgF-17" value="AuthV0设置推特" style="whiteSpace=wrap;html=1;rounded=0;" vertex="1" parent="1">
          <mxGeometry x="690" y="70" width="120" height="60" as="geometry" />
        </mxCell>
        <mxCell id="OP0g3b1n2njnNrjM4BgF-20" value="把AuthV0写入redis中" style="whiteSpace=wrap;html=1;rounded=0;" vertex="1" parent="1">
          <mxGeometry x="340" y="210" width="120" height="60" as="geometry" />
        </mxCell>
      </root>
    </mxGraphModel>
  </diagram>
</mxfile>
